name rise49.25peak52.1432fall72.8391.mot
datacolumns 19
datarows 27
range 12.45828500000000 12.50161900000000
endheader
time	ground_force1_vx	ground_force1_vy	ground_force1_vz	ground_force1_px	ground_force1_py	ground_force1_pz	ground_force2_vx	ground_force2_vy	ground_force2_vz	ground_force2_px	ground_force2_py	ground_force2_pz	ground_torque1_x	ground_torque1_y	ground_torque1_z	ground_torque2_x	ground_torque2_y	ground_torque2_z	
12.45828500000000	21.25994100000000	716.47755400000005	34.43232000000000	0.24493400000000	0.00000000000000	0.09098800000000	0.00000000000000	0.00000000000000	0.00000000000000	0.00000000000000	0.00000000000000	0.00000000000000	0.00000000000000	12.59930800000000	0.00000000000000	0.00000000000000	0.00000000000000	0.00000000000000	
12.45995500000000	20.88854200000000	717.10099000000002	34.32543000000000	0.24404400000000	0.00000000000000	0.09090200000000	0.00000000000000	0.00000000000000	0.00000000000000	0.00000000000000	0.00000000000000	0.00000000000000	0.00000000000000	12.57825200000000	0.00000000000000	0.00000000000000	0.00000000000000	0.00000000000000	
12.46161900000000	20.50919100000000	717.73680600000000	34.22048100000000	0.24312400000000	0.00000000000000	0.09081800000000	0.00000000000000	0.00000000000000	0.00000000000000	0.00000000000000	0.00000000000000	0.00000000000000	0.00000000000000	12.55965100000000	0.00000000000000	0.00000000000000	0.00000000000000	0.00000000000000	
12.46328200000000	20.12189500000000	718.38327400000003	34.11734700000000	0.24217600000000	0.00000000000000	0.09073600000000	0.00000000000000	0.00000000000000	0.00000000000000	0.00000000000000	0.00000000000000	0.00000000000000	0.00000000000000	12.54350400000000	0.00000000000000	0.00000000000000	0.00000000000000	0.00000000000000	
12.46495300000000	19.72667400000000	719.03869999999995	34.01591200000000	0.24119900000000	0.00000000000000	0.09065800000000	0.00000000000000	0.00000000000000	0.00000000000000	0.00000000000000	0.00000000000000	0.00000000000000	0.00000000000000	12.52981700000000	0.00000000000000	0.00000000000000	0.00000000000000	0.00000000000000	
12.46661400000000	19.32356600000000	719.70143199999995	33.91607400000000	0.24019700000000	0.00000000000000	0.09058100000000	0.00000000000000	0.00000000000000	0.00000000000000	0.00000000000000	0.00000000000000	0.00000000000000	0.00000000000000	12.51860500000000	0.00000000000000	0.00000000000000	0.00000000000000	0.00000000000000	
12.46828300000000	18.91262200000000	720.36986200000001	33.81774000000000	0.23916800000000	0.00000000000000	0.09050700000000	0.00000000000000	0.00000000000000	0.00000000000000	0.00000000000000	0.00000000000000	0.00000000000000	0.00000000000000	12.50988600000000	0.00000000000000	0.00000000000000	0.00000000000000	0.00000000000000	
12.46994700000000	18.49390500000000	721.04243199999996	33.72083300000000	0.23811600000000	0.00000000000000	0.09043500000000	0.00000000000000	0.00000000000000	0.00000000000000	0.00000000000000	0.00000000000000	0.00000000000000	0.00000000000000	12.50368300000000	0.00000000000000	0.00000000000000	0.00000000000000	0.00000000000000	
12.47162100000000	18.06749400000000	721.71763899999996	33.62528600000000	0.23704200000000	0.00000000000000	0.09036600000000	0.00000000000000	0.00000000000000	0.00000000000000	0.00000000000000	0.00000000000000	0.00000000000000	0.00000000000000	12.50002400000000	0.00000000000000	0.00000000000000	0.00000000000000	0.00000000000000	
12.47328000000000	17.63347800000000	722.39403600000003	33.53104500000000	0.23594600000000	0.00000000000000	0.09029800000000	0.00000000000000	0.00000000000000	0.00000000000000	0.00000000000000	0.00000000000000	0.00000000000000	0.00000000000000	12.49894200000000	0.00000000000000	0.00000000000000	0.00000000000000	0.00000000000000	
12.47494900000000	17.19195800000000	723.07024300000000	33.43806700000000	0.23483200000000	0.00000000000000	0.09023200000000	0.00000000000000	0.00000000000000	0.00000000000000	0.00000000000000	0.00000000000000	0.00000000000000	0.00000000000000	12.50047200000000	0.00000000000000	0.00000000000000	0.00000000000000	0.00000000000000	
12.47662400000000	16.74304700000000	723.74494500000003	33.34632300000000	0.23370000000000	0.00000000000000	0.09016800000000	0.00000000000000	0.00000000000000	0.00000000000000	0.00000000000000	0.00000000000000	0.00000000000000	0.00000000000000	12.50465100000000	0.00000000000000	0.00000000000000	0.00000000000000	0.00000000000000	
12.47828200000000	16.28686500000000	724.41690000000006	33.25579500000000	0.23255300000000	0.00000000000000	0.09010500000000	0.00000000000000	0.00000000000000	0.00000000000000	0.00000000000000	0.00000000000000	0.00000000000000	0.00000000000000	12.51151900000000	0.00000000000000	0.00000000000000	0.00000000000000	0.00000000000000	
12.47995600000000	15.82354500000000	725.08493899999996	33.16647400000000	0.23139200000000	0.00000000000000	0.09004400000000	0.00000000000000	0.00000000000000	0.00000000000000	0.00000000000000	0.00000000000000	0.00000000000000	0.00000000000000	12.52111600000000	0.00000000000000	0.00000000000000	0.00000000000000	0.00000000000000	
12.48162000000000	15.35322600000000	725.74797500000000	33.07836700000000	0.23021900000000	0.00000000000000	0.08998400000000	0.00000000000000	0.00000000000000	0.00000000000000	0.00000000000000	0.00000000000000	0.00000000000000	0.00000000000000	12.53348400000000	0.00000000000000	0.00000000000000	0.00000000000000	0.00000000000000	
12.48328600000000	14.87605800000000	726.40500199999997	32.99148900000000	0.22903700000000	0.00000000000000	0.08992600000000	0.00000000000000	0.00000000000000	0.00000000000000	0.00000000000000	0.00000000000000	0.00000000000000	0.00000000000000	12.54866100000000	0.00000000000000	0.00000000000000	0.00000000000000	0.00000000000000	
12.48495200000000	14.39219400000000	727.05510100000004	32.90586600000000	0.22784600000000	0.00000000000000	0.08986800000000	0.00000000000000	0.00000000000000	0.00000000000000	0.00000000000000	0.00000000000000	0.00000000000000	0.00000000000000	12.56668800000000	0.00000000000000	0.00000000000000	0.00000000000000	0.00000000000000	
12.48661600000000	13.90179600000000	727.69744100000003	32.82153500000000	0.22665000000000	0.00000000000000	0.08981200000000	0.00000000000000	0.00000000000000	0.00000000000000	0.00000000000000	0.00000000000000	0.00000000000000	0.00000000000000	12.58760100000000	0.00000000000000	0.00000000000000	0.00000000000000	0.00000000000000	
12.48828200000000	13.40503300000000	728.33128299999998	32.73854300000000	0.22545000000000	0.00000000000000	0.08975600000000	0.00000000000000	0.00000000000000	0.00000000000000	0.00000000000000	0.00000000000000	0.00000000000000	0.00000000000000	12.61143600000000	0.00000000000000	0.00000000000000	0.00000000000000	0.00000000000000	
12.48995100000000	12.90207600000000	728.95598199999995	32.65694600000000	0.22424700000000	0.00000000000000	0.08970100000000	0.00000000000000	0.00000000000000	0.00000000000000	0.00000000000000	0.00000000000000	0.00000000000000	0.00000000000000	12.63822500000000	0.00000000000000	0.00000000000000	0.00000000000000	0.00000000000000	
12.49162900000000	12.39310300000000	729.57099100000005	32.57681000000000	0.22304400000000	0.00000000000000	0.08964600000000	0.00000000000000	0.00000000000000	0.00000000000000	0.00000000000000	0.00000000000000	0.00000000000000	0.00000000000000	12.66799500000000	0.00000000000000	0.00000000000000	0.00000000000000	0.00000000000000	
12.49328400000000	11.87829500000000	730.17585799999995	32.49820900000000	0.22184200000000	0.00000000000000	0.08959200000000	0.00000000000000	0.00000000000000	0.00000000000000	0.00000000000000	0.00000000000000	0.00000000000000	0.00000000000000	12.70077100000000	0.00000000000000	0.00000000000000	0.00000000000000	0.00000000000000	
12.49495300000000	11.35783800000000	730.77023399999996	32.42122600000000	0.22064300000000	0.00000000000000	0.08953900000000	0.00000000000000	0.00000000000000	0.00000000000000	0.00000000000000	0.00000000000000	0.00000000000000	0.00000000000000	12.73657200000000	0.00000000000000	0.00000000000000	0.00000000000000	0.00000000000000	
12.49662100000000	10.83191600000000	731.35386700000004	32.34595200000000	0.21944900000000	0.00000000000000	0.08948500000000	0.00000000000000	0.00000000000000	0.00000000000000	0.00000000000000	0.00000000000000	0.00000000000000	0.00000000000000	12.77541100000000	0.00000000000000	0.00000000000000	0.00000000000000	0.00000000000000	
12.49828300000000	10.30072200000000	731.92660999999998	32.27248300000000	0.21826100000000	0.00000000000000	0.08943200000000	0.00000000000000	0.00000000000000	0.00000000000000	0.00000000000000	0.00000000000000	0.00000000000000	0.00000000000000	12.81729800000000	0.00000000000000	0.00000000000000	0.00000000000000	0.00000000000000	
12.49995400000000	9.76444500000000	732.48841400000003	32.20092700000000	0.21708000000000	0.00000000000000	0.08937800000000	0.00000000000000	0.00000000000000	0.00000000000000	0.00000000000000	0.00000000000000	0.00000000000000	0.00000000000000	12.86223400000000	0.00000000000000	0.00000000000000	0.00000000000000	0.00000000000000	
12.50161900000000	9.22327900000000	733.03933600000005	32.13139300000000	0.21590700000000	0.00000000000000	0.08932400000000	0.00000000000000	0.00000000000000	0.00000000000000	0.00000000000000	0.00000000000000	0.00000000000000	0.00000000000000	12.91021500000000	0.00000000000000	0.00000000000000	0.00000000000000	0.00000000000000	
